<mxfile host="app.diagrams.net" agent="Mozilla/5.0 (Windows NT 10.0; Win64; x64; rv:133.0) Gecko/20100101 Firefox/133.0" version="25.0.3">
  <diagram name="Page-1" id="IKbDWgi7gHxD6zWWYiBB">
    <mxGraphModel dx="2924" dy="1134" grid="1" gridSize="10" guides="1" tooltips="1" connect="1" arrows="1" fold="1" page="1" pageScale="1" pageWidth="850" pageHeight="1100" math="0" shadow="0">
      <root>
        <mxCell id="0" />
        <mxCell id="1" parent="0" />
        <mxCell id="ryxurl4GM8uFts9W3DeK-1" value="" style="rounded=0;whiteSpace=wrap;html=1;" vertex="1" parent="1">
          <mxGeometry x="50" y="110" width="770" height="650" as="geometry" />
        </mxCell>
        <mxCell id="ryxurl4GM8uFts9W3DeK-4" value="" style="rounded=0;whiteSpace=wrap;html=1;" vertex="1" parent="1">
          <mxGeometry x="608" y="139" width="190" height="170" as="geometry" />
        </mxCell>
        <mxCell id="ryxurl4GM8uFts9W3DeK-5" value="" style="rounded=0;whiteSpace=wrap;html=1;" vertex="1" parent="1">
          <mxGeometry x="588" y="159" width="190" height="170" as="geometry" />
        </mxCell>
        <mxCell id="ryxurl4GM8uFts9W3DeK-6" value="" style="rounded=0;whiteSpace=wrap;html=1;" vertex="1" parent="1">
          <mxGeometry x="568" y="189" width="190" height="170" as="geometry" />
        </mxCell>
        <mxCell id="ryxurl4GM8uFts9W3DeK-7" value="&lt;div&gt;&lt;font style=&quot;font-size: 28px;&quot;&gt;Digital&amp;nbsp;&lt;/font&gt;&lt;/div&gt;&lt;div&gt;&lt;font style=&quot;font-size: 28px;&quot;&gt;Student SS&lt;/font&gt;&lt;/div&gt;&lt;div&gt;&lt;font style=&quot;font-size: 28px;&quot;&gt;1 .... N&lt;br&gt;&lt;/font&gt;&lt;/div&gt;" style="rounded=0;whiteSpace=wrap;html=1;" vertex="1" parent="1">
          <mxGeometry x="548" y="219" width="190" height="170" as="geometry" />
        </mxCell>
        <mxCell id="ryxurl4GM8uFts9W3DeK-8" value="" style="rounded=0;whiteSpace=wrap;html=1;" vertex="1" parent="1">
          <mxGeometry x="-350" y="110" width="840" height="650" as="geometry" />
        </mxCell>
        <mxCell id="ryxurl4GM8uFts9W3DeK-9" value="" style="rounded=0;whiteSpace=wrap;html=1;" vertex="1" parent="1">
          <mxGeometry x="610" y="440" width="190" height="170" as="geometry" />
        </mxCell>
        <mxCell id="ryxurl4GM8uFts9W3DeK-10" value="" style="rounded=0;whiteSpace=wrap;html=1;" vertex="1" parent="1">
          <mxGeometry x="590" y="465" width="190" height="170" as="geometry" />
        </mxCell>
        <mxCell id="ryxurl4GM8uFts9W3DeK-11" value="&lt;div&gt;&lt;font style=&quot;font-size: 28px;&quot;&gt;Analog Student SS&lt;/font&gt;&lt;/div&gt;&lt;div&gt;&lt;font style=&quot;font-size: 28px;&quot;&gt;1 ... N&lt;br&gt;&lt;/font&gt;&lt;/div&gt;" style="rounded=0;whiteSpace=wrap;html=1;" vertex="1" parent="1">
          <mxGeometry x="570" y="490" width="190" height="170" as="geometry" />
        </mxCell>
        <mxCell id="ryxurl4GM8uFts9W3DeK-12" value="&lt;div&gt;&lt;font style=&quot;font-size: 28px;&quot;&gt;Global&lt;br&gt;&lt;/font&gt;&lt;/div&gt;&lt;div&gt;&lt;font style=&quot;font-size: 28px;&quot;&gt;ICN&lt;/font&gt;&lt;/div&gt;" style="rounded=0;whiteSpace=wrap;html=1;" vertex="1" parent="1">
          <mxGeometry x="390" y="110" width="100" height="650" as="geometry" />
        </mxCell>
        <mxCell id="ryxurl4GM8uFts9W3DeK-13" value="&lt;font style=&quot;font-size: 28px;&quot;&gt;IO Cell Frame&lt;/font&gt;" style="rounded=0;whiteSpace=wrap;html=1;" vertex="1" parent="1">
          <mxGeometry x="-350" y="680" width="740" height="80" as="geometry" />
        </mxCell>
        <mxCell id="ryxurl4GM8uFts9W3DeK-15" value="&lt;div&gt;&lt;font style=&quot;font-size: 28px;&quot;&gt;RISC-V&lt;/font&gt;&lt;/div&gt;&lt;div&gt;&lt;font style=&quot;font-size: 28px;&quot;&gt;Core&lt;br&gt;&lt;/font&gt;&lt;/div&gt;" style="rounded=0;whiteSpace=wrap;html=1;" vertex="1" parent="1">
          <mxGeometry x="-340" y="120" width="190" height="170" as="geometry" />
        </mxCell>
        <mxCell id="ryxurl4GM8uFts9W3DeK-16" value="&lt;font style=&quot;font-size: 27px;&quot;&gt;JTAG Dbg module&lt;/font&gt;" style="rounded=0;whiteSpace=wrap;html=1;" vertex="1" parent="1">
          <mxGeometry x="-340" y="370" width="190" height="170" as="geometry" />
        </mxCell>
        <mxCell id="ryxurl4GM8uFts9W3DeK-17" value="&lt;font style=&quot;font-size: 28px;&quot;&gt;Staff ICN&lt;/font&gt;" style="rounded=0;whiteSpace=wrap;html=1;" vertex="1" parent="1">
          <mxGeometry x="-90" y="120" width="150" height="500" as="geometry" />
        </mxCell>
        <mxCell id="ryxurl4GM8uFts9W3DeK-18" value="&lt;font style=&quot;font-size: 28px;&quot;&gt;IMem&lt;/font&gt;" style="rounded=0;whiteSpace=wrap;html=1;" vertex="1" parent="1">
          <mxGeometry x="120" y="120" width="190" height="160" as="geometry" />
        </mxCell>
        <mxCell id="ryxurl4GM8uFts9W3DeK-19" value="&lt;font style=&quot;font-size: 28px;&quot;&gt;DMem&lt;/font&gt;" style="rounded=0;whiteSpace=wrap;html=1;" vertex="1" parent="1">
          <mxGeometry x="120" y="300" width="190" height="160" as="geometry" />
        </mxCell>
        <mxCell id="ryxurl4GM8uFts9W3DeK-20" value="&lt;font style=&quot;font-size: 28px;&quot;&gt;Staff Peripherals&lt;/font&gt;" style="rounded=0;whiteSpace=wrap;html=1;" vertex="1" parent="1">
          <mxGeometry x="120" y="475" width="190" height="150" as="geometry" />
        </mxCell>
        <mxCell id="ryxurl4GM8uFts9W3DeK-22" value="" style="endArrow=classic;html=1;rounded=0;exitX=0.5;exitY=0;exitDx=0;exitDy=0;" edge="1" parent="1" source="ryxurl4GM8uFts9W3DeK-16" target="ryxurl4GM8uFts9W3DeK-15">
          <mxGeometry width="50" height="50" relative="1" as="geometry">
            <mxPoint x="-260" y="405" as="sourcePoint" />
            <mxPoint x="-260" y="300" as="targetPoint" />
          </mxGeometry>
        </mxCell>
        <mxCell id="ryxurl4GM8uFts9W3DeK-25" value="" style="endArrow=classic;html=1;rounded=0;exitX=1;exitY=0.5;exitDx=0;exitDy=0;entryX=0.007;entryY=0.168;entryDx=0;entryDy=0;entryPerimeter=0;" edge="1" parent="1" source="ryxurl4GM8uFts9W3DeK-15" target="ryxurl4GM8uFts9W3DeK-17">
          <mxGeometry width="50" height="50" relative="1" as="geometry">
            <mxPoint x="400" y="580" as="sourcePoint" />
            <mxPoint x="-30" y="20" as="targetPoint" />
          </mxGeometry>
        </mxCell>
        <mxCell id="ryxurl4GM8uFts9W3DeK-26" value="" style="endArrow=classic;html=1;rounded=0;exitX=1;exitY=0.5;exitDx=0;exitDy=0;entryX=0.007;entryY=0.168;entryDx=0;entryDy=0;entryPerimeter=0;" edge="1" parent="1">
          <mxGeometry width="50" height="50" relative="1" as="geometry">
            <mxPoint x="-150" y="455.5" as="sourcePoint" />
            <mxPoint x="-89" y="454.5" as="targetPoint" />
          </mxGeometry>
        </mxCell>
        <mxCell id="ryxurl4GM8uFts9W3DeK-27" value="" style="endArrow=classic;html=1;rounded=0;exitX=1;exitY=0.5;exitDx=0;exitDy=0;entryX=0.007;entryY=0.168;entryDx=0;entryDy=0;entryPerimeter=0;" edge="1" parent="1">
          <mxGeometry width="50" height="50" relative="1" as="geometry">
            <mxPoint x="60" y="191" as="sourcePoint" />
            <mxPoint x="121" y="190" as="targetPoint" />
          </mxGeometry>
        </mxCell>
        <mxCell id="ryxurl4GM8uFts9W3DeK-28" value="" style="endArrow=classic;html=1;rounded=0;exitX=1;exitY=0.5;exitDx=0;exitDy=0;entryX=0.007;entryY=0.168;entryDx=0;entryDy=0;entryPerimeter=0;" edge="1" parent="1">
          <mxGeometry width="50" height="50" relative="1" as="geometry">
            <mxPoint x="59" y="381" as="sourcePoint" />
            <mxPoint x="120" y="380" as="targetPoint" />
          </mxGeometry>
        </mxCell>
        <mxCell id="ryxurl4GM8uFts9W3DeK-29" value="" style="endArrow=classic;html=1;rounded=0;exitX=1;exitY=0.5;exitDx=0;exitDy=0;entryX=0.007;entryY=0.168;entryDx=0;entryDy=0;entryPerimeter=0;" edge="1" parent="1">
          <mxGeometry width="50" height="50" relative="1" as="geometry">
            <mxPoint x="60" y="550" as="sourcePoint" />
            <mxPoint x="121" y="549" as="targetPoint" />
          </mxGeometry>
        </mxCell>
        <mxCell id="ryxurl4GM8uFts9W3DeK-32" value="" style="endArrow=classic;html=1;rounded=0;exitX=1.02;exitY=0.346;exitDx=0;exitDy=0;entryX=-0.01;entryY=0.278;entryDx=0;entryDy=0;entryPerimeter=0;exitPerimeter=0;" edge="1" parent="1" source="ryxurl4GM8uFts9W3DeK-17" target="ryxurl4GM8uFts9W3DeK-12">
          <mxGeometry width="50" height="50" relative="1" as="geometry">
            <mxPoint x="-110" y="495.5" as="sourcePoint" />
            <mxPoint x="-49" y="494.5" as="targetPoint" />
          </mxGeometry>
        </mxCell>
        <mxCell id="ryxurl4GM8uFts9W3DeK-33" value="" style="shape=flexArrow;endArrow=classic;html=1;rounded=0;entryX=0;entryY=0.5;entryDx=0;entryDy=0;exitX=1;exitY=0.715;exitDx=0;exitDy=0;exitPerimeter=0;" edge="1" parent="1" source="ryxurl4GM8uFts9W3DeK-12" target="ryxurl4GM8uFts9W3DeK-11">
          <mxGeometry width="50" height="50" relative="1" as="geometry">
            <mxPoint x="400" y="580" as="sourcePoint" />
            <mxPoint x="450" y="530" as="targetPoint" />
          </mxGeometry>
        </mxCell>
        <mxCell id="ryxurl4GM8uFts9W3DeK-34" value="" style="shape=flexArrow;endArrow=classic;html=1;rounded=0;entryX=0;entryY=0.5;entryDx=0;entryDy=0;exitX=0.97;exitY=0.306;exitDx=0;exitDy=0;exitPerimeter=0;" edge="1" parent="1">
          <mxGeometry width="50" height="50" relative="1" as="geometry">
            <mxPoint x="489" y="308.9000000000001" as="sourcePoint" />
            <mxPoint x="550" y="309" as="targetPoint" />
          </mxGeometry>
        </mxCell>
        <mxCell id="ryxurl4GM8uFts9W3DeK-35" value="" style="endArrow=classic;startArrow=classic;html=1;rounded=0;entryX=0.5;entryY=1;entryDx=0;entryDy=0;exitX=0.142;exitY=0;exitDx=0;exitDy=0;exitPerimeter=0;" edge="1" parent="1" source="ryxurl4GM8uFts9W3DeK-13" target="ryxurl4GM8uFts9W3DeK-16">
          <mxGeometry width="50" height="50" relative="1" as="geometry">
            <mxPoint x="400" y="580" as="sourcePoint" />
            <mxPoint x="450" y="530" as="targetPoint" />
          </mxGeometry>
        </mxCell>
        <mxCell id="ryxurl4GM8uFts9W3DeK-36" value="" style="endArrow=classic;startArrow=classic;html=1;rounded=0;entryX=0.5;entryY=1;entryDx=0;entryDy=0;exitX=0.764;exitY=0.063;exitDx=0;exitDy=0;exitPerimeter=0;" edge="1" parent="1">
          <mxGeometry width="50" height="50" relative="1" as="geometry">
            <mxPoint x="215.36000000000013" y="682.04" as="sourcePoint" />
            <mxPoint x="215" y="622" as="targetPoint" />
          </mxGeometry>
        </mxCell>
      </root>
    </mxGraphModel>
  </diagram>
</mxfile>
